<svg xmlns="http://www.w3.org/2000/svg" viewBox="0 0 820 240" role="img" aria-label="Driven Fraud Detection Platform Architecture">
  <defs>
    <style>
      .bg { fill: #121212; }
      .panel { fill: #3a3a3a; fill-opacity: 0.45; stroke: #6b6b6b; stroke-width: 1; }
      .title { fill: #f5f5f5; font: 600 13px Inter, 'Segoe UI', Arial, sans-serif; }
      .node { fill: #0a0a0a; stroke: #d4d4d4; stroke-width: 1; }
      .txt { fill: #fafafa; font: 500 11px Inter, 'Segoe UI', Arial, sans-serif; }
      .db { fill: #f0f0f0; stroke: #bdbdbd; stroke-width: 1; }
      .dbt { fill: #111; font: 600 10px Inter, Arial, sans-serif; }
      .future { fill: #1a1a1a; stroke: #888; stroke-width: 1; stroke-dasharray: 4 3; }
      .arr { stroke: #eee; stroke-width: 1.2; fill: none; marker-end: url(#a); }
      .arrd { stroke: #aaa; stroke-width: 1; fill: none; stroke-dasharray: 4 3; marker-end: url(#b); }
    </style>
    <marker id="a" markerWidth="6" markerHeight="6" refX="5" refY="3" orient="auto"><path d="M0,0 L6,3 L0,6 Z" fill="#eee"/></marker>
    <marker id="b" markerWidth="6" markerHeight="6" refX="5" refY="3" orient="auto"><path d="M0,0 L6,3 L0,6 Z" fill="#aaa"/></marker>
  </defs>

  <rect class="bg" width="820" height="240"/>

  <!-- Data Pipeline (top-left, compact) -->
  <rect class="panel" x="12" y="10" width="158" height="112" rx="4"/>
  <text class="title" x="91" y="28" text-anchor="middle">Data Pipeline</text>

  <rect class="node" x="40" y="40" width="102" height="20" rx="2"/>
  <text class="txt" x="91" y="54" text-anchor="middle">Raw Layer</text>
  <rect class="node" x="40" y="64" width="102" height="20" rx="2"/>
  <text class="txt" x="91" y="78" text-anchor="middle">Bronze</text>
  <rect class="node" x="40" y="88" width="102" height="20" rx="2"/>
  <text class="txt" x="91" y="102" text-anchor="middle">Silver</text>
  <rect class="node" x="40" y="112" width="102" height="20" rx="2"/>
  <text class="txt" x="91" y="126" text-anchor="middle">Gold Analytics</text>

  <path class="arr" d="M91 60 L91 64 M91 84 L91 88 M91 108 L91 112"/>

  <!-- FastAPI Backend (center, stepped below pipeline) -->
  <rect class="panel" x="138" y="44" width="252" height="184" rx="4"/>
  <text class="title" x="264" y="62" text-anchor="middle">FastAPI Backend</text>

  <rect class="node" x="162" y="78" width="68" height="20" rx="2"/>
  <text class="txt" x="196" y="92" text-anchor="middle" font-size="10">Demo Seed</text>

  <ellipse class="db" cx="264" cy="118" rx="48" ry="9"/>
  <rect class="db" x="216" y="118" width="96" height="40" rx="2"/>
  <ellipse class="db" cx="264" cy="158" rx="48" ry="9"/>
  <text class="dbt" x="264" y="138" text-anchor="middle">dataStore</text>
  <text class="dbt" x="264" y="150" text-anchor="middle" font-size="8" fill="#555">Lakehouse / ODS</text>

  <rect class="future" x="216" y="172" width="96" height="20" rx="2"/>
  <text class="txt" x="264" y="186" text-anchor="middle" font-size="10">Future ML Layer</text>

  <rect class="node" x="216" y="200" width="96" height="20" rx="2"/>
  <text class="txt" x="264" y="214" text-anchor="middle" font-size="10">REST Endpoints</text>

  <path class="arr" d="M142 122 C160 122 190 128 216 135"/>
  <path class="arr" d="M196 98 L220 115"/>
  <path class="arrd" d="M264 158 L264 172"/>
  <path class="arr" d="M264 192 L264 200"/>

  <!-- React SPA (right) -->
  <rect class="panel" x="408" y="44" width="188" height="184" rx="4"/>
  <text class="title" x="502" y="62" text-anchor="middle">React SPA</text>

  <rect class="node" x="446" y="112" width="112" height="24" rx="2"/>
  <text class="txt" x="502" y="128" text-anchor="middle">Dashboards</text>

  <rect class="node" x="518" y="84" width="68" height="20" rx="2"/>
  <text class="txt" x="552" y="98" text-anchor="middle" font-size="10">Risk Monitoring</text>

  <rect class="node" x="518" y="144" width="68" height="20" rx="2"/>
  <text class="txt" x="552" y="158" text-anchor="middle" font-size="10">Fraud Analytics</text>

  <path class="arr" d="M312 210 C360 210 400 170 446 124"/>
  <path class="arr" d="M502 112 L538 104"/>
  <path class="arr" d="M502 136 L538 154"/>
</svg>
